<?xml version="1.0" encoding="UTF-8" standalone="no"?>
<!-- Created with Inkscape (http://www.inkscape.org/) -->

<svg
   version="1.1"
   id="svg132"
   width="512"
   height="512"
   viewBox="0 0 512 512"
   sodipodi:docname="hot-oat.svg"
   inkscape:version="1.2.2 (b0a8486541, 2022-12-01)"
   xmlns:inkscape="http://www.inkscape.org/namespaces/inkscape"
   xmlns:sodipodi="http://sodipodi.sourceforge.net/DTD/sodipodi-0.dtd"
   xmlns="http://www.w3.org/2000/svg"
   xmlns:svg="http://www.w3.org/2000/svg">
  <defs
     id="defs136" />
  <sodipodi:namedview
     id="namedview134"
     pagecolor="#ffffff"
     bordercolor="#000000"
     borderopacity="0.25"
     inkscape:showpageshadow="2"
     inkscape:pageopacity="0.0"
     inkscape:pagecheckerboard="0"
     inkscape:deskcolor="#d1d1d1"
     showgrid="false"
     inkscape:zoom="4.6055863"
     inkscape:cx="195.74055"
     inkscape:cy="295.40213"
     inkscape:window-width="3818"
     inkscape:window-height="2110"
     inkscape:window-x="0"
     inkscape:window-y="0"
     inkscape:window-maximized="1"
     inkscape:current-layer="g300" />
  <g
     inkscape:groupmode="layer"
     inkscape:label="Image"
     id="g138">
    <g
       id="g300"
       transform="translate(-7.4252998,-0.5831351)">
      <path
         style="fill:#ff0000;fill-opacity:1"
         d="M 166.54847,308.65306 C 155.68693,289.2308 151.70568,274.23371 151.64163,252.5 c -0.14584,-49.48885 25.9387,-87.62501 71.00878,-103.81638 13.41801,-4.82041 36.00595,-7.94685 36.00595,-4.87392 0,0.73721 -4.39595,5.61473 -7.14595,10.1903 -2.75,4.57557 -5.71037,8.46112 -5.71037,8.68503 0,0.22391 -2.10238,2.88341 -3.41456,4.63421 -6.97355,9.30462 -8.0988,18.75153 -6.3168,32.49241 0.79386,6.12137 2.15949,10.23011 4.06785,14.18835 l 2.90161,6.01838 c -8.60081,-6.12268 -10.26186,-8.24316 -14.02289,-16.98988 -3.03517,-4.79271 -2.05048,-2.707 -3.00124,-7.2757 -1.09229,-2.3375 -2.36557,-4.7528 -2.89547,-4.7528 -12.05772,17.75307 3.71049,54.65955 -11.179,22.92047 -8.81212,-28.33472 -0.0967,30.62315 0.0605,32.55913 0,1.59946 -0.58917,1.34832 -3.59733,-1.53343 -8.9803,-8.60296 -11.93596,-21.61998 -16.29846,-37.23221 -3.02631,-12.24252 -2.01386,-6.00663 -1.57497,2 0.98224,17.91865 0.38409,28.53548 10.84187,44.76338 3.10122,4.81233 4.3481,5.94589 4.75065,8.77056 -0.0534,1.08814 -1.69051,1.72146 -2.12176,1.45212 -7.80147,-3.70845 -16.39816,-23.81706 -18.49721,-31.95168 -0.81028,-3.43659 -1.51151,-8.72334 -1.55829,-11.74834 -0.17671,-11.42494 -2.67812,-11.59865 -3.62253,-0.25156 -1.05884,12.72202 3.23379,29.38512 10.70116,41.5397 2.5665,4.17747 3.91075,5.8776 2.4779,6.42744 -3.0209,1.15922 -10.74341,-9.67888 -16.1761,-23.53535 l -3.40325,-8.68023 0.48295,8 c 0.59116,9.79249 4.85261,24.15651 7.36164,24.81381 0.95355,0.2498 -0.51156,2.41226 -2.27199,2.47606 -5.96394,0.21614 -11.72435,0.52931 -13.99477,2.64453 -2.09693,1.95359 -2.27489,2.35116 -1.73374,9.85549 0.37518,5.20264 1.99053,12.0719 4.27372,19.09168 1.95245,6.00289 6.47374,12.40893 6.24761,12.63506 -0.22614,0.22613 -5.74001,-3.7897 -7.73863,-7.36357 z"
         id="path437"
         sodipodi:nodetypes="sssssssssccccccsccscccssssscsssssssss" />
      <path
         style="fill:#ff0000;fill-opacity:1"
         d="m 325.16544,345.07641 c 0,-0.35634 5.65929,-6.33975 10.33397,-11.18898 15.29884,-15.87013 25.30063,-34.14984 30.30536,-55.38743 3.27027,-13.87743 3.65607,-35.93977 0.86149,-49.2654 -4.4625,-21.27889 -14.03685,-40.43639 -28.57371,-57.17368 -13.38123,-15.40673 -39.41298,-29.54279 -63.31046,-34.37958 -6.01889,-1.2182 -6.28209,-1.39627 -6.28209,-4.2502 v -2.97872 l 10.71609,2.64388 c 28.53433,7.04002 52.45856,21.45136 68.16228,41.05922 7.16101,8.94133 17.97249,27.92443 21.66915,39.34448 5.61719,17.35307 6.65042,42.32825 3.40815,59.42011 -1.78399,9.40445 -7.33469,25.91627 -11.45804,34.08459 -8.31117,16.46432 -26.38857,39.04868 -32.05178,39.04868 -1.42848,0 -3.78041,-0.62063 -3.78041,-0.97697 z"
         id="path417"
         sodipodi:nodetypes="ssssssscsssssss" />
      <path
         style="fill:#ff0000;fill-opacity:1"
         d="M 177.38406,342.16325 C 172.37054,338.53147 161.19632,324.74379 156.18007,316 132.1027,274.03087 132.11175,227.42851 156.20496,187.76056 176.48689,154.36765 206.58509,135.45313 246.5,131.01673 259.03796,129.62318 259,129.619 259,132.39301 259,135.31855 257.3953,136 250.50618,136 c -16.78451,0 -41.59311,8.49656 -58.00618,19.86623 -15.15402,10.49749 -31.88412,31.19153 -39.27168,48.57647 -6.04152,14.21738 -8.33464,25.15242 -8.95334,42.69521 -0.43816,12.42379 -0.18862,17.66492 1.21411,25.5 4.16044,23.2387 14.55378,44.00492 30.27939,60.49922 4.00467,4.20042 8.73254,8.35268 10.50637,9.22723 2.44089,1.20344 4.29687,3.17229 2.78321,3.19985 -1.1,0.02 -3.06402,0.39282 -4.17582,0.69159 -1.29408,0.34775 -4.89074,-2.20373 -7.49818,-4.09255 z"
         id="path415"
         sodipodi:nodetypes="sssssssssssssss" />
      <path
         style="fill:#000000;fill-opacity:1"
         d="m 286.69878,376.45833 c 10.21454,-1.33439 15.7576,-2.3561 27.19586,-5.01284 1.62895,-0.37835 2.06825,-0.8826 1.37386,-1.57699 -0.69439,-0.69439 -5.341,-0.65869 -14.53182,0.11166 -17.02107,1.42666 -61.3503,1.77859 -86.23668,0.68464 -12.7627,-0.56103 -18.67172,-0.5044 -18,0.1725 1.46732,1.47864 11.71035,3.84603 22,5.08468 4.95,0.59587 10.125,1.24591 11.5,1.44453 7.64116,1.10377 46.00107,0.48933 56.69878,-0.90818 z"
         id="path379" />
      <path
         style="fill:none;fill-opacity:1"
         d="m 223,380.84872 c -13.97799,-1.2939 -31.22152,-4.55216 -40.41685,-7.637 L 174.5,370.5 v -5.91667 c 0,-7.00216 1.42232,-8.07503 4.28131,-3.22941 2.43017,4.11883 2.52293,4.13802 28.21869,5.83782 35.82944,2.37016 105.53989,1.0955 120.5,-2.20334 2.22596,-0.49085 4.97662,-2.0144 6.20203,-3.43522 3.0849,-3.57682 4.29797,-3.18684 4.29797,1.38172 0,7.70532 -0.92231,8.64755 -10.68804,10.91884 -9.57533,2.22701 -22.62684,4.42568 -39.74838,6.69605 -12.12915,1.60837 -48.5938,1.7772 -64.56358,0.29893 z"
         id="path377" />
      <path
         style="display:inline;fill:#ff0000;fill-opacity:1"
         d="m 346.91994,309.53528 c 10.86154,-19.42226 14.84279,-34.41935 14.90684,-56.15306 0.14584,-49.48885 -33.93716,-100.20965 -92.08289,-109.39088 -1.96336,19.01652 -0.44672,0.6923 -2.07552,19.57591 0,0.22391 -3.63654,14.28783 2.383,28.69715 15.72198,22.94252 11.34584,16.71018 18.8786,30.77996 7.798,8.85981 -9.78031,39.18272 12.5989,-8.24167 8.81212,-28.33472 0.0967,30.62315 -0.0605,32.55913 0,1.59946 0.58917,1.34832 3.59733,-1.53343 8.9803,-8.60296 11.93596,-21.61998 16.29846,-37.23221 3.02631,-12.24252 2.01386,-6.00663 1.57497,2 -0.98224,17.91865 -0.38409,28.53548 -10.84187,44.76338 -3.10122,4.81233 -4.3481,5.94589 -4.75065,8.77056 0.0534,1.08814 1.69051,1.72146 2.12176,1.45212 7.80147,-3.70845 16.39816,-23.81706 18.49721,-31.95168 0.81028,-3.43659 1.51151,-8.72334 1.55829,-11.74834 0.17671,-11.42494 2.67812,-11.59865 3.62253,-0.25156 1.05884,12.72202 -3.23379,29.38512 -10.70116,41.5397 -2.5665,4.17747 -3.91075,5.8776 -2.4779,6.42744 3.0209,1.15922 10.74341,-9.67888 16.1761,-23.53535 l 3.40325,-8.68023 -0.48295,8 c -0.59116,9.79249 -4.85261,24.15651 -7.36164,24.81381 -0.95355,0.2498 0.51156,2.41226 2.27199,2.47606 5.96394,0.21614 11.27208,1.26852 13.5425,3.38374 2.09693,1.95359 0.94558,2.20296 0.40443,9.70729 -0.37518,5.20264 -2.86129,10.83402 -5.14448,17.8538 -1.95245,6.00289 -7.89032,16.84016 -7.66419,17.06629 0.22614,0.22613 9.80893,-7.57406 11.80755,-11.14793 z"
         id="path437-3"
         sodipodi:nodetypes="ssccccccsccscccssssscsssssssss" />
      <path
         style="display:inline;fill:#000000;fill-opacity:1"
         d="m 231.5,389.39626 c -33.39599,-3.30446 -57.36623,-8.3568 -63.85188,-13.45841 -1.74559,-1.37308 -2.65189,-3.32985 -3.12057,-6.73753 -0.58365,-4.24367 -1.20405,-5.20479 -5.33206,-8.26035 -4.83211,-3.57674 -5.78576,-5.45199 -4.79007,-9.41914 C 155.10158,348.74711 159.44683,347 165.64922,347 168.04215,347 170,346.73149 170,346.40332 c 0,-0.32818 -2.75661,-3.59068 -6.12579,-7.25 -21.62808,-23.49059 -33.88604,-54.97948 -33.86831,-87.00269 0.0233,-42.11986 20.65408,-82.50094 54.27918,-106.2419 14.66993,-10.35768 29.30818,-16.52721 48.60358,-20.48477 8.19016,-1.67984 12.05723,-2.96395 13.76917,-4.57223 4.45645,-4.18662 8.39058,-11.46487 9.00603,-16.6614 0.39709,-3.3528 0.99938,-4.87305 1.80771,-4.562866 2.36967,0.909326 5.73255,8.584916 7.08556,16.172416 1.96535,11.02142 1.77498,16.80315 -0.79684,24.20012 -1.87882,5.40378 -3.57533,7.8492 -10.05936,14.5 l -7.7994,8 3.40801,-5.5 C 255.74137,146.62002 259,139.01939 259,134.39738 c 0,-5.06711 0.77863,-4.85652 -12.5,-3.38065 -39.91491,4.4364 -70.01311,23.35092 -90.29504,56.74383 -24.09321,39.66795 -24.10226,86.27031 -0.0249,128.23944 4.95435,8.6359 16.16948,22.51627 21.04851,26.05062 3.478,2.51945 4.49836,2.77229 9.09447,2.2535 2.84732,-0.32139 5.32591,-0.70775 5.50797,-0.85859 0.79819,-0.66127 -2.59148,-5.40325 -7.8241,-10.94553 -3.11562,-3.3 -7.09555,-8.03657 -8.84429,-10.52571 -4.50501,-6.4124 -11.10238,-27.3424 -11.84039,-37.56337 -0.5429,-7.51875 -0.42363,-8.23855 1.69155,-10.20914 1.25159,-1.16604 4.57301,-2.5357 7.38092,-3.0437 2.80791,-0.50799 10.05529,-1.91097 16.10529,-3.11773 6.05,-1.20675 13.00923,-2.43751 15.46495,-2.73501 2.45573,-0.29751 5.52395,-1.2348 6.81827,-2.08287 1.70606,-1.11785 6.80398,-1.77726 18.53505,-2.39748 8.89995,-0.47053 16.74423,-1.05953 17.43173,-1.30887 3.56089,-1.29147 0.0414,-11.71858 -9.6251,-28.51612 -7.80132,-13.55638 -12.15637,-25.3914 -12.07037,-32.80162 l 0.0545,-4.69838 1.97046,4.85614 c 2.55979,6.30856 6.60552,12.05332 12.42562,17.64386 5.65734,5.4342 11.76108,14.15552 15.26804,21.81574 1.95796,4.27675 2.65756,7.6034 2.87446,13.66836 0.27168,7.59657 0.4061,8.0159 2.56952,8.0159 1.73941,0 2.87797,-1.19025 4.78284,-5 2.10416,-4.20833 2.48892,-6.34584 2.43001,-13.5 -0.0778,-9.44274 -1.60463,-13.77306 -9.24388,-26.2163 -10.18555,-16.59082 -12.79533,-25.11848 -11.05448,-36.12148 1.23925,-7.83266 4.70933,-14.34982 11.36765,-21.3496 4.61269,-4.84924 5.4546,-5.39827 5.07968,-3.31262 -0.24717,1.375 -1.2119,6.67547 -2.14385,11.77883 -1.89683,10.38707 -1.58533,21.1925 0.80494,27.92197 0.82065,2.31044 3.99497,8.61044 7.05403,14 7.13405,12.569 9.13616,19.42713 8.42326,28.85336 -0.52615,6.95685 -3.47235,14.44527 -8.33917,21.19584 l -1.62213,2.25 5.87197,0.0768 c 3.22958,0.0423 7.67197,0.62197 9.87197,1.28821 2.86297,0.86702 5.08083,0.92461 7.80228,0.2026 3.22882,-0.85661 4.43539,-0.67343 8,1.21457 2.30875,1.22283 5.15526,2.22208 6.3256,2.22055 1.17033,-0.002 3.64533,0.62304 5.5,1.38792 1.85466,0.76489 8.32212,1.91936 14.37212,2.56549 13.581,1.45043 21.11837,3.46222 22.47604,5.99904 2.22272,4.15319 1.08706,12.00897 -3.96174,27.40474 -5.58073,17.01788 -7.79974,21.01725 -17.36032,31.2889 -3.65969,3.93187 -6.65398,7.61405 -6.65398,8.18261 0,1.32291 2.38462,1.95125 7.8506,2.0686 4.06083,0.0872 4.81664,-0.35596 11.34748,-6.65334 7.14828,-6.89273 16.70629,-20.15236 21.79955,-30.24204 4.12335,-8.16832 9.67405,-24.68014 11.45804,-34.08459 1.98408,-10.45921 1.99304,-31.04645 0.0185,-42.53912 -4.39019,-25.55299 -19.62594,-53.8682 -37.10061,-68.95041 -15.54643,-13.41798 -34.79888,-23.12136 -56.22552,-28.3381 L 268.5,130.5 l -0.31037,-3.75 c -0.1707,-2.0625 -0.10791,-3.75 0.13954,-3.75 0.24744,0 4.17884,0.70737 8.73644,1.57193 34.20544,6.48866 64.7902,26.34133 83.08088,53.92807 9.34776,14.09868 20.99608,37.93189 20.59147,76.1789 0.29672,23.79083 -2.98481,34.23246 -13.31811,57.2671 -4.62874,9.24636 -11.33681,18.83748 -20.26879,28.98007 L 341.80211,347 h 4.63106 c 2.54709,0 6.19161,0.65204 8.09895,1.44897 2.98644,1.24782 3.46788,1.91776 3.46788,4.82569 0,3.45859 -1.73219,5.64177 -7.12792,8.98378 -2.01173,1.24603 -2.79462,2.7548 -3.33886,6.43462 -0.39103,2.64382 -1.40717,5.58501 -2.25811,6.53598 -3.496,3.907 -23.58608,8.82528 -50.36204,12.3292 -11.72518,1.53437 -54.076,2.7619 -63.41307,1.83802 z m 56.06358,-8.84647 c 17.12154,-2.27037 30.17305,-4.46904 39.74838,-6.69605 C 337.07769,371.58245 338,370.64022 338,362.9349 c 0,-4.56856 -1.21307,-4.95854 -4.29797,-1.38172 -1.22541,1.42082 -3.97607,2.94437 -6.20203,3.43522 -14.96011,3.29884 -84.67056,4.5735 -120.5,2.20334 -25.69576,-1.6998 -25.78852,-1.71899 -28.21869,-5.83782 C 175.92232,356.5083 174.5,357.58117 174.5,364.58333 V 370.5 l 8.08315,2.71172 c 9.19533,3.08484 26.43886,6.3431 40.41685,7.637 15.96978,1.47827 52.43443,1.30944 64.56358,-0.29893 z m 23.4074,-21.56737 c 17.16925,-1.17213 18.2483,-1.43336 17.83732,-4.31831 -0.37492,-2.63173 -0.34922,-2.63127 -40.3083,-0.73053 -29.66954,1.41129 -73.25347,0.96866 -92.91419,-0.94363 -11.3987,-1.10869 -14.12058,-0.54416 -11.66166,2.41866 2.65912,3.20404 19.77926,4.27965 70.57585,4.43406 23.1,0.0702 48.51194,-0.31689 56.47098,-0.86025 z m -4.28113,-15.21928 c 16.57726,-14.06444 22.54379,-21.77996 28.26102,-36.54527 1.72165,-4.44635 1.81748,-5.36953 0.60561,-5.83457 -3.05654,-1.1729 -4.8223,0.30602 -7.25068,6.07286 -5.16883,12.27477 -14.52045,23.93287 -26.80343,33.41422 l -5.99763,4.62962 -38.64592,0.33073 c -43.93606,0.376 -40.38004,0.961 -52.11018,-8.57269 -10.54799,-8.5729 -17.92916,-19.19142 -21.22774,-30.53814 -1.55479,-5.34829 -1.86123,-5.7199 -4.71686,-5.7199 -2.80524,0 -3.00881,0.22614 -2.49887,2.77585 1.20904,6.04519 5.11762,14.68871 9.82444,21.726 5.25624,7.85873 10.38073,12.86548 20.84027,20.36143 6.25583,4.48332 6.76862,4.6576 15.5,5.268 4.96657,0.34721 23.90641,0.5634 42.08854,0.48042 l 33.05842,-0.15086 z m -16.42752,-7.32651 c 12.53614,-5.30409 25.41876,-19.00098 29.09747,-30.93663 0.61198,-1.98559 0.15524,-2 -63.37153,-2 -45.52411,0 -63.988,0.3146 -63.98811,1.09028 -9e-5,0.59965 1.40758,3.90741 3.12815,7.35057 5.99768,12.00242 19.16374,23.2218 30.48943,25.98139 2.13524,0.52026 16.48226,0.8522 31.88226,0.73764 25.55089,-0.19007 28.41655,-0.38454 32.76233,-2.22325 z M 316.5,296.01185 c 8.25,-0.61525 16.67985,-1.5599 18.73299,-2.09921 3.82434,-1.00456 6.6798,-4.39985 5.06141,-6.01824 -0.52118,-0.52118 -6.68069,-0.4774 -14.84264,0.1055 -25.94439,1.85287 -93.94337,2.39342 -120.95176,0.96151 -34.74514,-1.84211 -32.94024,-1.88117 -33.31068,0.72093 -0.18804,1.32082 0.40411,2.56075 1.5,3.14092 2.69647,1.42752 17.87889,3.18595 35.86607,4.15403 20.42062,1.09904 88.41628,0.4909 107.94461,-0.96544 z M 308,282.99291 c 31.34618,-1.20509 33.21832,-1.45278 32.80678,-4.3404 -0.29946,-2.10112 -0.68978,-2.80492 -15.55772,-2.04891 -24.30445,1.23585 -15.09363,-0.086 -14.03775,-1.35822 0.97784,-1.17822 0.8327,-1.74003 -0.74815,-2.89598 -2.6493,-1.93721 -6.85216,-1.34401 -7.303,1.03077 -0.19632,1.0341 0.24983,2.26471 0.99145,2.73469 0.79511,0.50388 37.22752,0.70831 -14.84807,1.66988 -5.92876,0.10947 -9.29719,-0.26104 -4.69515,-2.2066 2.01057,-0.84999 -1.67947,-6.17563 -3.13415,-5.20663 -3.47246,2.3131 -1.17696,0.0174 -0.7776,-1.02336 0.60517,-1.57703 -1.1819,-3.30509 -3.44664,-3.33284 -0.6875,-0.008 -2.18661,0.9213 -3.33136,2.06605 -1.97317,1.97317 -1.99221,2.17986 -0.36635,3.97642 0.94325,1.04228 2.10486,1.65411 2.58136,1.35962 0.47649,-0.29449 1.31075,-1.11 0.86635,0.4418 -0.14797,0.5167 0.26598,1.67036 0.59107,2.51753 0.0751,0.19569 1.39618,0.8656 3.24985,0.42584 7.46351,-1.77063 32.07757,0.72268 -0.70721,1.304 -5.95741,0.10563 -3.46456,-0.0254 -7.91898,0.11937 -5.20177,0.16906 -3.62146,0.23397 -9.20178,0.12155 -9.47964,-0.19098 4.22286,-1.33549 3.63773,-3.05397 -0.59008,-1.73304 0.009,-2.34079 -2.20797,-2.89726 -3.32562,-0.83467 -8.52841,1.58166 -6.26226,3.45587 2.74293,2.26853 18.51935,2.86623 -3.9915,2.2014 -35.57891,-1.05077 -3.81967,-0.20951 -3.4306,-2.86041 0.55628,-3.79018 -1.7899,-5.81487 -4.66068,-4.02204 -2.53567,1.58355 -4.12467,4.99338 -2.19985,5.20567 15.22323,1.67897 -8.47228,1.21935 -32.93724,0.69859 -3.18628,-0.0678 -3.53549,-0.34972 -3.5,-2.82534 0.0356,-2.4837 -0.29951,-2.75 -3.46058,-2.75 -3.11195,0 -3.53641,0.31865 -3.82839,2.874 l -0.32838,2.87399 -12.85922,-0.71118 c -7.07257,-0.39116 -13.7873,-0.41663 -14.92162,-0.0566 -2.72736,0.86563 -2.6271,3.30924 0.18761,4.57246 5.07273,2.27659 93.95625,3.54699 135.75,1.94025 z m -89.22251,-8.54961 c 2.53565,-1.77604 2.89233,-4.64251 0.79434,-6.38368 -1.11424,-0.92475 -2.10336,-0.83612 -4.5,0.40323 -3.1818,1.64538 -3.95293,4.25605 -1.87183,6.33715 1.59673,1.59673 2.90834,1.51285 5.57749,-0.3567 z m 13.65108,-0.0147 c 1.87902,-1.87901 2.00119,-3.59881 0.37143,-5.22857 -2.60434,-2.60434 -7.8,-0.73923 -7.8,2.8 0,3.75257 4.60055,5.25659 7.42857,2.42857 z m 64.07909,-0.6815 c 1.79245,-1.5418 2.40653,-2.80711 1.94546,-4.00863 -0.83303,-2.17086 -5.20848,-3.38014 -7.3579,-2.03357 -2.33049,1.46002 -2.61483,5.44202 -0.49906,6.9891 2.39309,1.74987 2.86401,1.67444 5.9115,-0.9469 z m -53.80527,-2.94324 c 1.81369,-1.75789 3.29761,-3.55789 3.29761,-4 0,-1.34405 -6.49011,-0.89715 -8.5193,0.58662 -1.63235,1.19361 -1.73323,1.7599 -0.71257,4 0.65395,1.43525 1.51472,2.60955 1.91282,2.60955 0.39811,0 2.20776,-1.43828 4.02144,-3.19617 z m 15.6826,-0.26865 C 260.861,266.75631 260.37989,266 255.5,266 c -4.98027,0 -5.94235,1.74874 -2.84501,5.17126 2.2389,2.47396 3.80623,2.29997 5.73,-0.63608 z m 11.00802,0.88303 c 1.25565,-3.27216 0.61007,-5.37933 -1.83617,-5.9933 -1.34375,-0.33726 -2.91875,-0.31927 -3.5,0.04 -1.79793,1.11118 -1.16756,4.34417 1.16567,5.97843 2.78839,1.95306 3.41286,1.94931 4.1705,-0.0251 z M 259.8,122.8 c 1.28887,-1.28887 1.52127,-10.12881 0.34472,-13.11247 -0.59499,-1.50884 -1.0165,-1.17962 -2.51621,1.9653 -0.99082,2.07777 -3.11257,5.43314 -4.715,7.45637 -1.60243,2.02324 -2.91351,3.95135 -2.91351,4.2847 0,1.13303 8.59388,0.61222 9.8,-0.5939 z"
         id="path302"
         sodipodi:nodetypes="ssssssssssssssssscsssssssssssssssssssscssssssssssssssssccssscssssssssssssscssssccscsssssssssssssssscssssssssssssssscssssssssscssssssssssssssssssssssssssssscsssssssssssssssssssscsssssssssssssssssssssssssssssssscsssssssss" />
    </g>
  </g>
</svg>
